<svg width="26" height="75" viewBox="0 0 26 75" fill="none" xmlns="http://www.w3.org/2000/svg">
<g clip-path="url(#clip0_2004_22)">
<path d="M2.84612 69.5801C5.06196 67.8765 9.93949 67.1615 12.5201 65.8682C13.6033 65.3257 14.0244 64.8416 14.0626 63.5729C14.3104 55.1584 13.8645 46.4928 14.2608 38.011C14.3126 36.8858 15.3259 35.0769 13.6528 34.8035C13.1506 34.7205 12.7386 35.0119 12.1891 34.9559C6.78688 34.391 3.28974 26.6422 2.12102 22.092C1.08967 18.0753 1.13921 12.4133 1.87332 8.41897C1.99492 7.75773 1.7945 6.54733 1.40493 5.99368C0.776662 5.10157 -0.914487 4.90208 0.634795 3.15373C2.69975 0.827067 4.7467 1.40537 7.37237 1.1207C8.52982 0.995178 9.62198 0.461705 10.8065 0.280145C14.3194 -0.260052 20.5525 -0.174876 23.4867 1.95005C24.8626 2.94527 24.9279 5.44452 25.0765 7.09201C25.5967 12.8459 26.923 21.6078 24.9662 26.9269C24.205 28.9958 21.773 32.0756 19.8905 33.3061C18.751 34.0503 16.2177 34.1624 15.8957 35.6059C15.4903 37.4148 16.0983 40.6806 16.0826 42.7405C16.0781 43.3794 15.8416 43.9308 15.8371 44.5136C15.7831 51.3142 15.8957 58.1194 15.8461 64.92L16.2042 65.4602L21.0141 67.1727C21.8811 67.6165 25.3084 70.3242 25.6372 71.0863C27.0266 74.3118 20.9016 73.8209 19.3388 73.998C15.416 74.4463 9.72781 75.3295 5.85011 74.8677C3.88423 74.6346 1.19326 73.1597 1.92962 70.7905C1.95213 70.7187 2.78757 69.6249 2.84612 69.5778V69.5801ZM13.9973 1.66538C12.054 1.72142 10.5002 2.12937 8.69196 2.43645C7.46019 2.64491 3.08032 2.71215 3.71534 4.59052C4.16571 5.04105 5.12501 5.56332 5.71274 5.74488C8.15376 6.5025 13.887 6.49129 16.346 5.79643C18.17 5.28089 19.9062 3.96738 21.9352 3.9629L22.1671 3.50116C22.1851 3.29718 22.1536 3.11338 22.0455 2.9363C21.3542 1.81108 15.389 1.62503 13.9973 1.66538ZM22.0905 6.12145C21.3024 6.25594 19.1474 7.61428 18.0912 7.98188C15.1278 9.0152 12.0923 8.92106 8.97794 8.54449C7.42416 8.35621 5.92667 7.94826 4.4562 7.43272C3.10509 8.04016 3.69733 9.66747 3.69282 10.6694C3.6658 16.3986 3.87748 23.3562 7.19222 28.2538C9.08603 31.049 12.8557 33.8643 16.3528 32.033C17.1072 31.6385 17.9674 31.1924 18.7015 30.7845C24.0316 27.8078 23.8312 21.6616 23.7321 16.2731L22.8382 6.17748C22.6062 6.01162 22.3427 6.07886 22.0883 6.12145H22.0905ZM13.5943 67.7219C13.1259 67.7219 12.653 67.6658 12.1868 67.7824C10.8335 68.1186 7.51198 69.477 6.23292 70.1472C5.41099 70.5775 4.31884 70.9451 4.92234 71.9852C5.10249 72.2967 5.69923 72.3954 6.04602 72.4357C9.17836 72.7899 15.2246 72.5702 18.4132 72.1847C18.9492 72.1197 22.1919 71.5481 22.3743 71.4203C23.0003 70.9855 21.7302 70.2637 21.3227 70.0059C20.3814 69.4119 17.0216 67.6927 16.0668 68.2822C15.5286 68.614 15.3732 70.6111 13.9613 70.174C13.3015 69.9701 13.6866 68.2934 13.5943 67.7263V67.7219Z" fill="#D63C25"/>
<path d="M15.3352 13.7556C16.6683 13.5583 20.9243 14.3361 21.9241 15.1565C22.5569 15.6765 21.798 16.7793 21.717 17.4159C21.6494 17.9337 21.762 18.4694 21.6967 18.967C21.3341 21.7689 19.9988 29.1546 17.4024 30.607C15.074 31.9093 10.1852 29.0223 9.04347 26.8593C8.64715 26.1061 8.57509 25.0168 8.29585 24.4654C8.0459 23.9723 6.55291 23.45 6.05525 22.661C4.69738 20.5047 5.39095 17.472 7.4379 15.9836C9.48709 14.4908 11.1445 14.6903 13.4211 14.3182C14.0719 14.2128 14.7542 13.843 15.3329 13.7578L15.3352 13.7556Z" fill="#D63C25"/>
</g>
<defs>
<clipPath id="clip0_2004_22">
<rect width="26" height="75" fill="white"/>
</clipPath>
</defs>
</svg>
