<svg width="25" height="76" viewBox="0 0 25 76" fill="none" xmlns="http://www.w3.org/2000/svg">
<path d="M14.7759 0.000193492C16.0409 -0.0206865 16.0757 1.65319 16.1992 2.65891C16.7891 7.43695 16.4324 12.2602 16.4167 17.0574C16.6308 17.4942 16.7526 17.9796 16.977 18.4111C18.5987 21.5101 22.3849 21.5188 23.4237 25.3624C24.6295 29.8308 23.8274 37.8208 23.85 42.6841C23.8918 51.5634 23.0983 60.6114 23.3419 69.4662C23.3646 70.3136 23.4707 72.5721 22.8078 73.1237C22.6372 73.2664 22.2736 73.2629 22.0543 73.4143C20.33 74.6062 18.583 75.1438 16.462 75.3039C13.0829 75.558 6.3143 75.6484 3.10226 74.9142C1.80248 74.6166 0.0798789 72.948 0.00505889 71.5664C-0.0784611 70.0282 0.897678 70.0857 1.0508 69.1147C1.19 68.236 0.991639 67.0998 1.06298 66.1689C1.56584 59.5117 1.37618 53.7836 1.23524 47.1994C1.09778 40.8415 0.137298 26.3699 5.42516 21.8094C6.11768 21.2108 7.55666 20.8959 8.09606 20.3043C9.74384 18.4981 9.20618 13.426 9.23402 11.0022C9.26186 8.57839 8.9156 5.81701 9.43586 3.54805C9.98396 1.15033 12.493 0.0384732 14.7759 0.0019332V0.000193492ZM13.5927 6.92191C13.3665 8.23387 12.065 7.59355 11.2803 7.82497C10.4172 8.07901 10.9775 9.35269 10.9914 9.95821C11.0628 13.0711 11.5308 18.9714 9.24794 21.2787C8.21264 22.3244 6.32996 22.6063 5.61482 23.7355C4.37768 25.6913 3.43112 30.2536 3.1562 32.5869C2.44628 38.576 3.30236 44.6573 3.33542 50.6742C3.36326 55.6993 3.2258 60.7158 2.65334 65.6661C2.5037 66.9606 2.09132 69.2452 2.6603 70.3153C3.77216 72.4103 6.07766 72.2833 8.11172 72.3459C10.6243 72.4207 14.5149 72.6139 16.9701 72.3268C18.0315 72.2032 20.3248 71.5507 20.5475 70.3362C20.812 68.8938 20.5092 66.2194 20.5475 64.596C20.5753 63.4545 21.3392 62.0904 19.5574 61.7719C18.0697 61.5057 16.5264 61.3474 15.0265 61.0829C13.9268 60.8898 10.8244 60.6531 10.1284 60.065C9.66032 59.67 8.82512 58.586 8.73986 57.9735C8.4719 56.0856 9.07568 54.0568 9.22706 52.2298C9.58898 47.8972 9.50372 43.6377 9.76994 39.3747C9.82736 38.449 10.4016 34.1912 10.7391 33.5578C12.3086 30.6016 18.684 31.2141 21.4314 30.3301C21.722 28.9033 21.7899 26.6309 21.0834 25.2754C20.4274 24.0139 17.7235 22.5262 16.5507 21.2821C12.8898 17.4037 15.1587 12.9493 14.8229 8.21995L14.3879 1.86895C14.1078 0.722293 11.9867 2.14213 11.5099 2.66065C10.7583 3.47671 10.2989 5.53513 10.9862 6.48865L13.5962 6.92365L13.5927 6.92191ZM12.0685 57.6864C12.7262 58.3528 19.1868 58.5912 20.4692 59.1237C20.6293 59.1376 20.7093 59.0419 20.8155 58.9479C21.7029 58.1493 21.3479 54.0446 21.4158 52.7622C21.7324 46.8132 22.3449 40.276 21.943 34.3269C21.9047 33.7579 21.8334 32.145 21.2974 32.0005L15.371 33.3195C14.7533 33.4952 13.1316 34.0781 12.935 34.7115C12.0946 38.8561 12.7001 43.0078 12.5557 47.2081C12.5017 48.7898 12.4165 50.843 12.3103 52.3933C12.2355 53.5035 11.3081 56.9191 12.0667 57.6882L12.0685 57.6864Z" fill="#D63C25"/>
<path d="M5.34338 33.3828L5.8532 33.5377C6.12812 34.9245 6.0011 36.3965 6.11246 37.8024C6.42044 41.667 7.37396 47.9118 6.3143 51.5797C6.17684 52.0582 5.83928 52.7316 5.32946 52.8621C4.62476 52.8586 3.85394 50.6019 3.83306 49.9859C3.8 49.0324 4.2959 47.5603 4.36898 46.5024C4.64912 42.483 4.4264 38.3801 4.88924 34.3207C4.931 33.9553 5.00756 33.5847 5.34338 33.3828Z" fill="#D63C25"/>
<path d="M5.59046 70.429C5.45126 69.2493 5.3399 68.0592 5.4182 66.8655C5.453 66.3279 5.66354 64.5531 5.80274 64.1181C6.0794 63.2516 6.62576 63.697 6.7667 64.4713C6.92504 65.3448 6.4883 69.3955 6.07592 70.1332C5.95064 70.3594 5.88626 70.4882 5.5922 70.4308L5.59046 70.429Z" fill="#D63C25"/>
</svg>
