<svg width="15" height="19" viewBox="0 0 15 19" fill="none" xmlns="http://www.w3.org/2000/svg">
<g clip-path="url(#clip0_25_32918)">
<path d="M5.82107 0H3.05957V4.2726H5.82107V0Z" fill="#D63C25"/>
<path d="M8.88076 0H6.11926V4.2726H8.88076V0Z" fill="#D63C25"/>
<path d="M12.2385 0V4.2726H15V2.88635C15 1.29237 13.7636 0 12.2385 0Z" fill="#D63C25"/>
<path d="M2.7615 0C1.23646 0 0 1.29237 0 2.88635C0 3.65338 0 4.2726 0 4.2726H2.7615V0Z" fill="#D63C25"/>
<path d="M11.9403 0H9.17883V4.2726H11.9403V0Z" fill="#D63C25"/>
<path d="M11.9403 5.74805H9.17883V13.2486H11.9403V5.74805Z" fill="#D63C25"/>
<path d="M8.88076 5.74805H6.11926V13.2486H8.88076V5.74805Z" fill="#D63C25"/>
<path d="M5.82107 5.74805H3.05957V13.2486H5.82107V5.74805Z" fill="#D63C25"/>
<path d="M2.7615 5.74805H0V13.2486H2.7615V5.74805Z" fill="#D63C25"/>
<path d="M15 5.74805H12.2385V13.2486H15V5.74805Z" fill="#D63C25"/>
<path d="M8.88076 14.7266H6.11926V18.9992H8.88076V14.7266Z" fill="#D63C25"/>
<path d="M5.82107 14.7266H3.05957V18.9992H5.82107V14.7266Z" fill="#D63C25"/>
<path d="M2.7615 14.7266H0V16.1128C0 17.7068 1.23646 18.9992 2.7615 18.9992V14.7266Z" fill="#D63C25"/>
<path d="M11.9403 14.7266H9.17883V18.9992H11.9403V14.7266Z" fill="#D63C25"/>
<path d="M12.2385 14.7266V18.9992C13.7636 18.9992 15 17.7068 15 16.1128V14.7266H12.2385Z" fill="#D63C25"/>
</g>
<defs>
<clipPath id="clip0_25_32918">
<rect width="15" height="19" fill="white"/>
</clipPath>
</defs>
</svg>
