<svg width="22" height="20" viewBox="0 0 22 20" fill="none" xmlns="http://www.w3.org/2000/svg">
<g clip-path="url(#clip0_25_32898)">
<path d="M2.90303 5.6883C4.50632 5.6883 5.80605 4.41493 5.80605 2.84415C5.80605 1.27337 4.50632 0 2.90303 0C1.29973 0 0 1.27337 0 2.84415C0 4.41493 1.29973 5.6883 2.90303 5.6883Z" fill="#D63C25"/>
<path d="M8.30122 5.6883C9.90452 5.6883 11.2042 4.41493 11.2042 2.84415C11.2042 1.27337 9.90452 0 8.30122 0C6.69792 0 5.39819 1.27337 5.39819 2.84415C5.39819 4.41493 6.69792 5.6883 8.30122 5.6883Z" fill="#D63C25"/>
<path d="M13.6988 5.6883C15.3021 5.6883 16.6018 4.41493 16.6018 2.84415C16.6018 1.27337 15.3021 0 13.6988 0C12.0955 0 10.7958 1.27337 10.7958 2.84415C10.7958 4.41493 12.0955 5.6883 13.6988 5.6883Z" fill="#D63C25"/>
<path d="M19.097 5.6883C20.7003 5.6883 22 4.41493 22 2.84415C22 1.27337 20.7003 0 19.097 0C17.4937 0 16.194 1.27337 16.194 2.84415C16.194 4.41493 17.4937 5.6883 19.097 5.6883Z" fill="#D63C25"/>
<path d="M5.60176 10.5438C7.20505 10.5438 8.50478 9.2704 8.50478 7.69962C8.50478 6.12884 7.20505 4.85547 5.60176 4.85547C3.99846 4.85547 2.69873 6.12884 2.69873 7.69962C2.69873 9.2704 3.99846 10.5438 5.60176 10.5438Z" fill="#D63C25"/>
<path d="M11 10.5438C12.6032 10.5438 13.903 9.2704 13.903 7.69962C13.903 6.12884 12.6032 4.85547 11 4.85547C9.39665 4.85547 8.09692 6.12884 8.09692 7.69962C8.09692 9.2704 9.39665 10.5438 11 10.5438Z" fill="#D63C25"/>
<path d="M16.3981 10.5438C18.0014 10.5438 19.3012 9.2704 19.3012 7.69962C19.3012 6.12884 18.0014 4.85547 16.3981 4.85547C14.7948 4.85547 13.4951 6.12884 13.4951 7.69962C13.4951 9.2704 14.7948 10.5438 16.3981 10.5438Z" fill="#D63C25"/>
<path d="M8.30122 15.5867C9.90452 15.5867 11.2042 14.3134 11.2042 12.7426C11.2042 11.1718 9.90452 9.89844 8.30122 9.89844C6.69792 9.89844 5.39819 11.1718 5.39819 12.7426C5.39819 14.3134 6.69792 15.5867 8.30122 15.5867Z" fill="#D63C25"/>
<path d="M13.6988 15.5867C15.3021 15.5867 16.6018 14.3134 16.6018 12.7426C16.6018 11.1718 15.3021 9.89844 13.6988 9.89844C12.0955 9.89844 10.7958 11.1718 10.7958 12.7426C10.7958 14.3134 12.0955 15.5867 13.6988 15.5867Z" fill="#D63C25"/>
<path d="M11 20.0008C12.6032 20.0008 13.903 18.7274 13.903 17.1566C13.903 15.5859 12.6032 14.3125 11 14.3125C9.39665 14.3125 8.09692 15.5859 8.09692 17.1566C8.09692 18.7274 9.39665 20.0008 11 20.0008Z" fill="#D63C25"/>
</g>
<defs>
<clipPath id="clip0_25_32898">
<rect width="22" height="20" fill="white"/>
</clipPath>
</defs>
</svg>
